<svg width="121" height="81" viewBox="0 0 121 81" fill="none" xmlns="http://www.w3.org/2000/svg">
<path d="M80.8203 30.5H120.45V79.8492H80.8203V30.5Z" stroke="white"/>
<rect x="1.4502" y="30.5" width="39.6299" height="49.3492" stroke="white"/>
<rect x="41.1353" y="30.5" width="39.6299" height="49.3492" stroke="white"/>
<path d="M1.45659 30.5C1.6902 21.392 8.30717 13.953 19.0162 8.73905C29.9099 3.43519 44.9262 0.5 61.3371 0.5C77.748 0.5 92.5693 3.43522 103.268 8.7375C113.782 13.9482 120.217 21.3856 120.444 30.5H120.358H120.26H120.162H120.064H119.966H119.868H119.77H119.672H119.574H119.477H119.379H119.282H119.185H119.088H118.99H118.893H118.796H118.7H118.603H118.506H118.409H118.313H118.216H118.12H118.024H117.927H117.831H117.735H117.639H117.543H117.447H117.351H117.255H117.16H117.064H116.968H116.873H116.777H116.682H116.586H116.491H116.396H116.3H116.205H116.11H116.015H115.92H115.825H115.73H115.635H115.54H115.446H115.351H115.256H115.161H115.067H114.972H114.878H114.783H114.688H114.594H114.5H114.405H114.311H114.216H114.122H114.028H113.933H113.839H113.745H113.651H113.556H113.462H113.368H113.274H113.18H113.086H112.992H112.898H112.803H112.709H112.615H112.521H112.427H112.333H112.239H112.145H112.051H111.957H111.863H111.769H111.675H111.581H111.487H111.393H111.299H111.205H111.11H111.016H110.922H110.828H110.734H110.64H110.546H110.451H110.357H110.263H110.169H110.075H109.98H109.886H109.792H109.697H109.603H109.508H109.414H109.319H109.225H109.13H109.036H108.941H108.846H108.752H108.657H108.562H108.467H108.373H108.278H108.183H108.088H107.993H107.898H107.802H107.707H107.612H107.517H107.421H107.326H107.231H107.135H107.039H106.944H106.848H106.752H106.657H106.561H106.465H106.369H106.273H106.177H106.08H105.984H105.888H105.791H105.695H105.598H105.502H105.405H105.308H105.211H105.114H105.017H104.92H104.823H104.725H104.628H104.531H104.433H104.335H104.238H104.14H104.042H103.944H103.846H103.747H103.649H103.551H103.452H103.354H103.255H103.156H103.057H102.958H102.859H102.76H102.66H102.561H102.461H102.362H102.262H102.162H102.062H101.962H101.861H101.761H101.66H101.56H101.459H101.358H101.257H101.156H101.055H100.953H100.852H100.75H100.648H100.547H100.445H100.342H100.24H100.138H100.035H99.9323H99.8294H99.7264H99.6232H99.5199H99.4165H99.3129H99.2092H99.1053H99.0012H98.8971H98.7927H98.6882H98.5836H98.4788H98.3738H98.2687H98.1635H98.058H97.9524H97.8467H97.7408H97.6347H97.5284H97.422H97.3154H97.2087H97.1018H96.9947H96.8874H96.78H96.6724H96.5646H96.4566H96.3485H96.2401H96.1316H96.023H95.9141H95.8051H95.6958H95.5864H95.4768H95.367H95.257H95.1469H95.0365H94.9259H94.8152H94.7042H94.5931H94.4818H94.3702H94.2585H94.1466H94.0344H93.9221H93.8095H93.6968H93.5838H93.4707H93.3573H93.2437H93.1299H93.0159H92.9017H92.7873H92.6726H92.5578H92.4427H92.3274H92.2119H92.0962H91.9802H91.864H91.7476H91.631H91.5141H91.397H91.2797H91.1622H91.0444H90.9264H90.8082H90.6897H90.571H90.4521H90.3329H90.2135H90.0938H89.9739H89.8537H89.7334H89.6127H89.4919H89.3707H89.2494H89.1277H89.0059H88.8837H88.7614H88.6387H88.5159H88.3927H88.2693H88.1457H88.0218H87.8976H87.7732H87.6485H87.5235H87.3983H87.2728H87.147H87.021H86.8947H86.7681H86.6413H86.5142H86.3868H86.2592H86.1312H86.003H85.8745H85.7458H85.6167H85.4874H85.3578H85.2279H85.0977H84.9672H84.8364H84.7054H84.5741H84.4425H84.3105H84.1783H84.0458H83.913H83.7799H83.6465H83.5128H83.3788H83.2446H83.11H82.9751H82.8399H82.7044H82.5685H82.4324H82.296H82.1592H82.0222H81.8848H81.7472H81.6092H81.4709H81.3322H81.1933H81.054H80.9145H80.7746H80.6343H80.4938H80.3529H80.2117H80.0702H79.9284H79.7862H79.6437H79.5008H79.3576H79.2141H79.0703H78.9261H78.7816H78.6367H78.4915H78.346H78.2001H78.0539H77.9074H77.7605H77.6132H77.4656H77.3177H77.1694H77.0207H76.8717H76.7224H76.5727H76.4226H76.2722H76.1214H75.9703H75.8188H75.6669H75.5147H75.3621H75.2092H75.0559H74.9022H74.7482H74.5938H74.439H74.2838H74.1283H73.9724H73.8161H73.6595H73.5025H73.3451H73.1873H73.0292H72.8706H72.7117H72.5524H72.3927H72.2326H72.0722H71.9113H71.7501H71.5885H71.4264H71.264H71.1012H70.938H70.7744H70.6104H70.4461H70.2813H70.1161H69.9505H69.7845H69.6181H69.4513H69.2841H69.1165H68.9485H68.78H68.6112H68.4419H68.2723H68.1022H67.9317H67.7608H67.5895H67.4177H67.2456H67.073H66.9H66.7265H66.5527H66.3784H66.2037H66.0286H65.853H65.677H65.5006H65.3238H65.1465H64.9688H64.7906H64.612H64.433H64.2535H64.0736H63.8933H63.7125H63.5313H63.3496H63.1675H62.9849H62.8019H62.6184H62.4345H62.2501H62.0653H61.8801H61.6943H61.5082H61.3215H61.1344H60.9469H60.7589H60.5704H60.3815H60.1921H60.0022H59.8119H59.6211H59.4298H59.2381H59.0459H58.8532H58.6699H58.4867H58.3038H58.1209H57.9383H57.7558H57.5734H57.3913H57.2092H57.0274H56.8457H56.6642H56.4828H56.3017H56.1206H55.9398H55.7591H55.5786H55.3983H55.2181H55.0381H54.8583H54.6786H54.4991H54.3198H54.1407H53.9617H53.783H53.6044H53.4259H53.2477H53.0696H52.8917H52.714H52.5365H52.3592H52.182H52.005H51.8282H51.6516H51.4752H51.299H51.1229H50.9471H50.7714H50.5959H50.4206H50.2455H50.0706H49.8959H49.7213H49.547H49.3728H49.1989H49.0251H48.8516H48.6782H48.505H48.3321H48.1593H47.9867H47.8143H47.6422H47.4702H47.2984H47.1269H46.9555H46.7843H46.6134H46.4426H46.2721H46.1017H45.9316H45.7617H45.592H45.4224H45.2531H45.0841H44.9152H44.7465H44.5781H44.4098H44.2418H44.074H43.9064H43.739H43.5719H43.4049H43.2382H43.0717H42.9054H42.7393H42.5735H42.4079H42.2425H42.0773H41.9123H41.7476H41.5831H41.4188H41.2547H41.0909H40.9273H40.7639H40.6008H40.4379H40.2752H40.1127H39.9505H39.7885H39.6268H39.4653H39.304H39.1429H38.9821H38.8215H38.6612H38.5011H38.3412H38.1816H38.0222H37.8631H37.7042H37.5455H37.3871H37.2289H37.071H36.9133H36.7558H36.5986H36.4417H36.285H36.1285H35.9723H35.8164H35.6607H35.5052H35.35H35.1951H35.0404H34.8859H34.7317H34.5778H34.4241H34.2707H34.1175H33.9646H33.812H33.6596H33.5074H33.3556H33.204H33.0526H32.9015H32.7507H32.6001H32.4499H32.2998H32.1501H32.0006H31.8513H31.7024H31.5537H31.4053H31.2571H31.1092H30.9616H30.8143H30.6672H30.5204H30.3739H30.2277H30.0817H29.936H29.7906H29.6454H29.5006H29.356H29.2117H29.0677H28.9239H28.7805H28.6373H28.4944H28.3518H28.2095H28.0674H27.9257H27.7842H27.643H27.5022H27.3615H27.2212H27.0812H26.9415H26.802H26.6629H26.524H26.3855H26.2472H26.1092H25.9715H25.8341H25.697H25.5603H25.4238H25.2876H25.1517H25.0161H24.8808H24.7458H24.6111H24.4767H24.3426H24.2088H24.0754H23.9422H23.8093H23.6768H23.5445H23.4126H23.2809H23.1496H23.0186H22.8879H22.7575H22.6274H22.4977H22.3682H22.2391H22.1103H21.9818H21.8536H21.7257H21.5981H21.4709H21.344H21.2174H21.0911H20.9652H20.8395H20.7142H20.5892H20.4646H20.3402H20.2162H20.0925H19.9692H19.8461H19.7234H19.6011H19.479H19.3573H19.2359H19.1149H18.9941H18.8738H18.7537H18.634H18.5146H18.3955H18.2768H18.1585H18.0404H17.9227H17.8053H17.6883H17.5716H17.4553H17.3393H17.2236H17.1083H16.9934H16.8787H16.7645H16.6505H16.5369H16.4237H16.3108H16.1983H16.0861H15.9742H15.8627H15.7516H15.6408H15.5304H15.4203H15.3105H15.2012H15.0921H14.9835H14.8752H14.7672H14.6596H14.5524H14.4455H14.339H14.2329H14.1271H14.0216H13.9166H13.8119H13.7075H13.6036H13.4999H13.3967H13.2938H13.1913H13.0892H12.9874H12.886H12.785H12.6843H12.584H12.4841H12.3846H12.2854H12.1866H12.0882H11.9902H11.8925H11.7952H11.6983H11.6018H11.5056H11.4099H11.3145H11.2195H11.1248H11.0306H10.9367H10.8433H10.7502H10.6575H10.5652H10.4732H10.3817H10.2905H10.1998H10.1094H10.0194H9.92979H9.84058H9.75177H9.66335H9.57532H9.48769H9.40045H9.31361H9.22717H9.14112H9.05547H8.97022H8.88536H8.80091H8.71686H8.63321H8.54996H8.46711H8.38467H8.30263H8.221H8.13977H8.05894H7.97853H7.89852H7.81892H7.73972H7.66094H7.58257H7.50461H7.42706H7.34992H7.27319H7.19688H7.12098H7.0455H6.97043H6.89578H6.82154H6.74773H6.67433H6.60135H6.52879H6.45665H6.38493H6.31363H6.24276H6.17231H6.10228H6.03267H5.9635H5.89474H5.82642H5.75852H5.69105H5.62401H5.55739H5.49121H5.42546H5.36014H5.29525H5.23079H5.16677H5.10318H5.04002H4.9773H4.91502H4.85317H4.79176H4.73079H4.67026H4.61016H4.55051H4.4913H4.43253H4.3742H4.31632H4.25887H4.20188H4.14532H4.08922H4.03356H3.97834H3.92358H3.86926H3.81539H3.76197H3.709H3.65649H3.60442H3.55281H3.50165H3.45094H3.40069H3.35089H3.30155H3.25267H3.20424H3.15627H3.10876H3.06171H3.01512H2.96899H2.92332H2.87811H2.83337H2.78908H2.74527H2.70192H2.65903H2.61661H2.57465H2.53317H2.49215H2.4516H2.41152H2.37191H2.33277H2.2941H2.25591H2.21819H2.18094H2.14416H2.10786H2.07204H2.03669H2.00182H1.96743H1.93352H1.90008H1.86713H1.83465H1.80266H1.77115H1.74012H1.70957H1.67951H1.64994H1.62084H1.59224H1.56412H1.53648H1.50934H1.48269H1.45659Z" stroke="white"/>
</svg>
