<svg width="73" height="65" viewBox="0 0 73 65" fill="none" xmlns="http://www.w3.org/2000/svg">
<path d="M0.503841 30.5C0.645882 21.2771 4.71775 13.8434 11.1695 8.67987C17.7465 3.41597 26.8146 0.5 36.7354 0.5C46.6557 0.5 55.6043 3.41568 62.0625 8.67714C68.3977 13.8384 72.3582 21.2721 72.4963 30.5H72.4607H72.401H72.3415H72.282H72.2225H72.1631H72.1038H72.0445H71.9852H71.926H71.8669H71.8078H71.7488H71.6898H71.6309H71.572H71.5131H71.4544H71.3956H71.3369H71.2783H71.2196H71.1611H71.1025H71.0441H70.9856H70.9272H70.8689H70.8105H70.7523H70.694H70.6358H70.5776H70.5195H70.4614H70.4033H70.3453H70.2873H70.2293H70.1714H70.1135H70.0556H69.9978H69.94H69.8822H69.8245H69.7667H69.709H69.6514H69.5937H69.5361H69.4785H69.4209H69.3633H69.3058H69.2483H69.1908H69.1333H69.0758H69.0184H68.961H68.9036H68.8462H68.7888H68.7315H68.6741H68.6168H68.5595H68.5022H68.4449H68.3876H68.3303H68.273H68.2158H68.1585H68.1013H68.0441H67.9868H67.9296H67.8724H67.8152H67.7579H67.7007H67.6435H67.5863H67.5291H67.4719H67.4147H67.3575H67.3003H67.243H67.1858H67.1286H67.0714H67.0141H66.9569H66.8997H66.8424H66.7851H66.7278H66.6706H66.6133H66.556H66.4986H66.4413H66.384H66.3266H66.2692H66.2118H66.1544H66.097H66.0396H65.9821H65.9246H65.8671H65.8096H65.7521H65.6945H65.6369H65.5793H65.5217H65.464H65.4063H65.3486H65.2909H65.2331H65.1754H65.1175H65.0597H65.0018H64.9439H64.886H64.828H64.77H64.712H64.6539H64.5958H64.5377H64.4795H64.4213H64.363H64.3047H64.2464H64.188H64.1296H64.0712H64.0127H63.9542H63.8956H63.837H63.7783H63.7196H63.6609H63.6021H63.5432H63.4843H63.4254H63.3664H63.3073H63.2483H63.1891H63.1299H63.0707H63.0114H62.952H62.8926H62.8331H62.7736H62.714H62.6544H62.5947H62.535H62.4752H62.4153H62.3554H62.2954H62.2353H62.1752H62.115H62.0548H61.9944H61.9341H61.8736H61.8131H61.7525H61.6919H61.6312H61.5704H61.5095H61.4486H61.3876H61.3265H61.2654H61.2042H61.1429H61.0815H61.0201H60.9586H60.897H60.8353H60.7735H60.7117H60.6498H60.5878H60.5257H60.4636H60.4013H60.339H60.2766H60.2141H60.1515H60.0888H60.0261H59.9633H59.9003H59.8373H59.7742H59.711H59.6477H59.5843H59.5209H59.4573H59.3937H59.3299H59.266H59.2021H59.1381H59.0739H59.0097H58.9454H58.8809H58.8164H58.7518H58.687H58.6222H58.5572H58.4922H58.4271H58.3618H58.2964H58.231H58.1654H58.0997H58.034H57.9681H57.9021H57.8359H57.7697H57.7034H57.6369H57.5704H57.5037H57.4369H57.37H57.303H57.2358H57.1686H57.1012H57.0337H56.9661H56.8984H56.8305H56.7625H56.6945H56.6262H56.5579H56.4894H56.4208H56.3521H56.2833H56.2143H56.1452H56.076H56.0067H55.9372H55.8676H55.7978H55.728H55.6579H55.5878H55.5175H55.4471H55.3766H55.3059H55.2351H55.1642H55.0931H55.0218H54.9505H54.879H54.8073H54.7355H54.6636H54.5915H54.5193H54.447H54.3745H54.3018H54.229H54.1561H54.083H54.0098H53.9364H53.8628H53.7892H53.7153H53.6413H53.5672H53.4929H53.4185H53.3439H53.2691H53.1942H53.1191H53.0439H52.9685H52.893H52.8173H52.7414H52.6654H52.5892H52.5129H52.4364H52.3597H52.2829H52.2059H52.1288H52.0514H51.9739H51.8963H51.8185H51.7405H51.6623H51.584H51.5055H51.4268H51.3479H51.2689H51.1897H51.1104H51.0308H50.9511H50.8712H50.7911H50.7109H50.6304H50.5498H50.4691H50.3881H50.3069H50.2256H50.1441H50.0624H49.9805H49.8985H49.8162H49.7338H49.6512H49.5684H49.4854H49.4022H49.3188H49.2352H49.1515H49.0675H48.9834H48.8991H48.8146H48.7298H48.6449H48.5598H48.4745H48.389H48.3033H48.2174H48.1313H48.045H47.9586H47.8719H47.785H47.6979H47.6106H47.5231H47.4354H47.3474H47.2593H47.171H47.0825H46.9937H46.9048H46.8156H46.7262H46.6367H46.5469H46.4569H46.3667H46.2762H46.1856H46.0947H46.0037H45.9124H45.8209H45.7292H45.6372H45.5451H45.4527H45.3601H45.2673H45.1742H45.081H44.9875H44.8938H44.7998H44.7057H44.6113H44.5167H44.4219H44.3268H44.2315H44.136H44.0402H43.9442H43.848H43.7516H43.6549H43.558H43.4609H43.3635H43.2659H43.168H43.0699H42.9716H42.8731H42.7743H42.6752H42.5759H42.4764H42.3767H42.2766H42.1764H42.0759H41.9752H41.8742H41.773H41.6715H41.5698H41.4678H41.3656H41.2632H41.1604H41.0575H40.9543H40.8508H40.7471H40.6431H40.5389H40.4344H40.3297H40.2247H40.1194H40.014H39.9082H39.8022H39.6959H39.5894H39.4826H39.3755H39.2682H39.1606H39.0527H38.9446H38.8363H38.7276H38.6187H38.5095H38.4001H38.2904H38.1804H38.0701H37.9596H37.8488H37.7378H37.6264H37.5148H37.403H37.2908H37.1784H37.0657H36.9527H36.8394H36.7259H36.6121H36.498H36.3836H36.269H36.154H36.0388H35.9233H35.8075H35.6914H35.5751H35.4585H35.3415H35.2243H35.1128H35.0014H34.8901H34.7789H34.6678H34.5567H34.4458H34.335H34.2243H34.1136H34.0031H33.8927H33.7824H33.6721H33.562H33.452H33.3421H33.2323H33.1226H33.013H32.9035H32.7941H32.6848H32.5756H32.4665H32.3576H32.2487H32.1399H32.0313H31.9227H31.8143H31.706H31.5978H31.4897H31.3817H31.2738H31.166H31.0584H30.9508H30.8434H30.7361H30.6288H30.5217H30.4148H30.3079H30.2011H30.0945H29.988H29.8816H29.7753H29.6691H29.563H29.4571H29.3513H29.2456H29.14H29.0345H28.9292H28.824H28.7189H28.6139H28.509H28.4043H28.2997H28.1952H28.0908H27.9866H27.8824H27.7784H27.6746H27.5708H27.4672H27.3637H27.2603H27.1571H27.054H26.951H26.8481H26.7454H26.6428H26.5403H26.4379H26.3357H26.2336H26.1317H26.0299H25.9282H25.8266H25.7252H25.6239H25.5228H25.4217H25.3208H25.2201H25.1195H25.019H24.9186H24.8184H24.7183H24.6184H24.5186H24.4189H24.3194H24.22H24.1208H24.0217H23.9227H23.8239H23.7252H23.6267H23.5283H23.43H23.3319H23.2339H23.1361H23.0384H22.9409H22.8435H22.7462H22.6491H22.5521H22.4553H22.3587H22.2621H22.1658H22.0695H21.9735H21.8775H21.7818H21.6861H21.5907H21.4953H21.4002H21.3051H21.2103H21.1155H21.021H20.9265H20.8323H20.7382H20.6442H20.5504H20.4568H20.3633H20.27H20.1768H20.0838H19.9909H19.8982H19.8057H19.7133H19.621H19.529H19.4371H19.3453H19.2537H19.1623H19.071H18.9799H18.889H18.7982H18.7076H18.6171H18.5268H18.4367H18.3467H18.2569H18.1673H18.0779H17.9886H17.8994H17.8105H17.7217H17.633H17.5446H17.4563H17.3682H17.2802H17.1924H17.1048H17.0174H16.9301H16.843H16.7561H16.6693H16.5827H16.4963H16.4101H16.324H16.2381H16.1524H16.0669H15.9815H15.8964H15.8114H15.7265H15.6419H15.5574H15.4731H15.389H15.3051H15.2213H15.1377H15.0543H14.9711H14.8881H14.8052H14.7226H14.6401H14.5578H14.4757H14.3937H14.312H14.2304H14.149H14.0678H13.9868H13.906H13.8253H13.7449H13.6646H13.5845H13.5047H13.425H13.3454H13.2661H13.187H13.1081H13.0293H12.9507H12.8724H12.7942H12.7162H12.6384H12.5608H12.4834H12.4062H12.3292H12.2524H12.1758H12.0993H12.0231H11.9471H11.8712H11.7956H11.7202H11.6449H11.5699H11.495H11.4204H11.3459H11.2717H11.1977H11.1238H11.0502H10.9767H10.9035H10.8305H10.7576H10.685H10.6126H10.5404H10.4684H10.3965H10.3249H10.2536H10.1824H10.1114H10.0406H9.97004H9.89968H9.82953H9.75959H9.68986H9.62034H9.55103H9.48193H9.41305H9.34437H9.2759H9.20765H9.13961H9.07179H9.00418H8.93678H8.8696H8.80263H8.73587H8.66934H8.60302H8.53691H8.47103H8.40536H8.3399H8.27467H8.20965H8.14486H8.08028H8.01593H7.95179H7.88788H7.82418H7.76071H7.69746H7.63443H7.57163H7.50905H7.44669H7.38455H7.32264H7.26096H7.1995H7.13827H7.07726H7.01648H6.95593H6.8956H6.8355H6.77563H6.71599H6.65658H6.5974H6.53844H6.47972H6.42123H6.36297H6.30494H6.24715H6.18958H6.13225H6.07515H6.01829H5.96166H5.90526H5.8491H5.79317H5.73748H5.68203H5.62681H5.57183H5.51709H5.46258H5.40832H5.35429H5.3005H5.24695H5.19364H5.14057H5.08774H5.03516H4.98281H4.93071H4.87885H4.82723H4.77585H4.72472H4.67383H4.62319H4.57279H4.52264H4.47273H4.42307H4.37366H4.32449H4.27557H4.2269H4.17847H4.1303H4.08237H4.03469H3.98727H3.94009H3.89316H3.84649H3.80007H3.75389H3.70798H3.66231H3.6169H3.57174H3.52683H3.48218H3.43778H3.39364H3.34976H3.30613H3.26276H3.21964H3.17678H3.13418H3.09184H3.04976H3.00793H2.96637H2.92506H2.88402H2.84323H2.80271H2.76245H2.72245H2.68271H2.64324H2.60403H2.56508H2.5264H2.48798H2.44982H2.41193H2.37431H2.33695H2.29986H2.26304H2.22648H2.19019H2.15417H2.11842H2.08294H2.04772H2.01278H1.97811H1.9437H1.90957H1.87571H1.84212H1.80881H1.77576H1.74299H1.7105H1.67827H1.64633H1.61465H1.58325H1.55213H1.52129H1.49072H1.46042H1.43041H1.40067H1.37121H1.34203H1.31313H1.2845H1.25616H1.2281H1.20032H1.17281H1.1456H1.11866H1.092H1.06563H1.03954H1.01373H0.988212H0.962974H0.938022H0.913354H0.888972H0.864876H0.841067H0.817544H0.794309H0.771361H0.748702H0.726331H0.704249H0.682456H0.660954H0.639741H0.618819H0.598188H0.577849H0.557801H0.538046H0.518583H0.503841Z" fill="white" stroke="#2D62CD"/>
<rect x="48.5" y="30.5" width="24" height="34" fill="white" stroke="#2D62CD"/>
<rect x="0.5" y="30.5" width="24" height="34" fill="white" stroke="#2D62CD"/>
<rect x="24.5" y="30.5" width="24" height="34" fill="white" stroke="#2D62CD"/>
</svg>
