<svg width="37" height="99" viewBox="0 0 37 99" fill="none" xmlns="http://www.w3.org/2000/svg">
<path d="M0.0869141 0.104492H5.15527L11.3662 14.8848L12.8018 18.459L13.9297 14.8848L16.2148 9.49414L12.0986 0.104492H16.874L18.5586 4.57227L20.126 0.104492H24.9014L20.7852 9.49414L23.1143 15.002L24.5205 18.459L25.6045 14.9434L31.8447 0.104492H36.9131L26.8057 23H22.2061L20.1699 18.459L18.5146 14.0498L16.8594 18.459L14.7939 23H10.1943L0.0869141 0.104492ZM5.4043 49.4863C5.4043 47.7578 5.72168 46.1758 6.35645 44.7402C6.99121 43.3047 7.87988 42.0742 9.02246 41.0488C10.1748 40.0137 11.5518 39.2129 13.1533 38.6465C14.7646 38.0801 16.5469 37.7969 18.5 37.7969C20.4434 37.7969 22.2207 38.0801 23.832 38.6465C25.4434 39.2129 26.8203 40.0137 27.9629 41.0488C29.1152 42.0742 30.0088 43.3047 30.6436 44.7402C31.2783 46.1758 31.5957 47.7578 31.5957 49.4863C31.5957 51.2246 31.2783 52.8213 30.6436 54.2764C30.0088 55.7217 29.1152 56.9668 27.9629 58.0117C26.8203 59.0566 25.4434 59.8721 23.832 60.458C22.2207 61.0342 20.4434 61.3223 18.5 61.3223C16.5469 61.3223 14.7646 61.0342 13.1533 60.458C11.5518 59.8721 10.1748 59.0566 9.02246 58.0117C7.87988 56.9668 6.99121 55.7217 6.35645 54.2764C5.72168 52.8213 5.4043 51.2246 5.4043 49.4863ZM10.0479 49.4863C10.0479 50.668 10.2578 51.7324 10.6777 52.6797C11.1074 53.627 11.6982 54.4375 12.4502 55.1113C13.2119 55.7754 14.1055 56.2881 15.1309 56.6494C16.166 57.0107 17.2891 57.1914 18.5 57.1914C19.7109 57.1914 20.8291 57.0107 21.8545 56.6494C22.8896 56.2881 23.7832 55.7754 24.5352 55.1113C25.2871 54.4375 25.8779 53.627 26.3076 52.6797C26.7373 51.7324 26.9521 50.668 26.9521 49.4863C26.9521 48.3047 26.7373 47.2451 26.3076 46.3076C25.8779 45.3701 25.2871 44.5791 24.5352 43.9346C23.7832 43.2803 22.8896 42.7822 21.8545 42.4404C20.8291 42.0986 19.7109 41.9277 18.5 41.9277C17.2891 41.9277 16.166 42.0986 15.1309 42.4404C14.1055 42.7822 13.2119 43.2803 12.4502 43.9346C11.6982 44.5791 11.1074 45.3701 10.6777 46.3076C10.2578 47.2451 10.0479 48.3047 10.0479 49.4863ZM0.0869141 76.1045H5.15527L11.3662 90.8848L12.8018 94.459L13.9297 90.8848L16.2148 85.4941L12.0986 76.1045H16.874L18.5586 80.5723L20.126 76.1045H24.9014L20.7852 85.4941L23.1143 91.002L24.5205 94.459L25.6045 90.9434L31.8447 76.1045H36.9131L26.8057 99H22.2061L20.1699 94.459L18.5146 90.0498L16.8594 94.459L14.7939 99H10.1943L0.0869141 76.1045Z" fill="#0069B4"/>
</svg>
